<svg width="20" height="21" viewBox="0 0 20 21" fill="none" xmlns="http://www.w3.org/2000/svg">
<path d="M10.0022 5.01374C7.16453 5.01374 4.87563 7.30265 4.87563 10.1403C4.87563 12.9781 7.16453 15.267 10.0022 15.267C12.8399 15.267 15.1288 12.9781 15.1288 10.1403C15.1288 7.30265 12.8399 5.01374 10.0022 5.01374ZM10.0022 13.4733C8.16843 13.4733 6.66927 11.9786 6.66927 10.1403C6.66927 8.30209 8.16397 6.80739 10.0022 6.80739C11.8405 6.80739 13.3352 8.30209 13.3352 10.1403C13.3352 11.9786 11.836 13.4733 10.0022 13.4733ZM16.5343 4.80404C16.5343 5.46885 15.9989 5.9998 15.3385 5.9998C14.6737 5.9998 14.1428 5.46439 14.1428 4.80404C14.1428 4.14369 14.6782 3.60828 15.3385 3.60828C15.9989 3.60828 16.5343 4.14369 16.5343 4.80404ZM19.9297 6.01765C19.8539 4.41586 19.488 2.99701 18.3146 1.82802C17.1456 0.659031 15.7267 0.293164 14.1249 0.212851C12.4741 0.119154 7.52593 0.119154 5.87507 0.212851C4.27775 0.288702 2.8589 0.654569 1.68544 1.82356C0.511991 2.99255 0.150586 4.4114 0.0702733 6.01319C-0.0234244 7.66405 -0.0234244 12.6122 0.0702733 14.263C0.146124 15.8648 0.511991 17.2837 1.68544 18.4527C2.8589 19.6217 4.27328 19.9875 5.87507 20.0678C7.52593 20.1615 12.4741 20.1615 14.1249 20.0678C15.7267 19.992 17.1456 19.6261 18.3146 18.4527C19.4835 17.2837 19.8494 15.8648 19.9297 14.263C20.0234 12.6122 20.0234 7.66851 19.9297 6.01765ZM17.797 16.0344C17.449 16.9089 16.7752 17.5826 15.8963 17.9351C14.58 18.4571 11.4568 18.3367 10.0022 18.3367C8.54769 18.3367 5.41997 18.4527 4.1082 17.9351C3.23369 17.5871 2.55996 16.9134 2.20747 16.0344C1.68544 14.7182 1.80591 11.5949 1.80591 10.1403C1.80591 8.6858 1.68991 5.55808 2.20747 4.24632C2.55549 3.3718 3.22922 2.69807 4.1082 2.34559C5.42443 1.82356 8.54769 1.94403 10.0022 1.94403C11.4568 1.94403 14.5845 1.82802 15.8963 2.34559C16.7708 2.69361 17.4445 3.36734 17.797 4.24632C18.319 5.56254 18.1985 8.6858 18.1985 10.1403C18.1985 11.5949 18.319 14.7226 17.797 16.0344Z" fill="#018992"/>
</svg>
