<svg width="20" height="21" viewBox="0 0 20 21" fill="none" xmlns="http://www.w3.org/2000/svg">
<path d="M4.47679 20.1421H0.330357V6.78945H4.47679V20.1421ZM2.40134 4.96802C1.07545 4.96802 0 3.86981 0 2.54392C9.49017e-09 1.90704 0.252998 1.29625 0.703336 0.845914C1.15367 0.395576 1.76446 0.142578 2.40134 0.142578C3.03821 0.142578 3.649 0.395576 4.09934 0.845914C4.54968 1.29625 4.80268 1.90704 4.80268 2.54392C4.80268 3.86981 3.72679 4.96802 2.40134 4.96802ZM19.9955 20.1421H15.858V13.6421C15.858 12.093 15.8268 10.1064 13.7022 10.1064C11.5464 10.1064 11.2161 11.7895 11.2161 13.5305V20.1421H7.07411V6.78945H11.0509V8.61088H11.1089C11.6625 7.56177 13.0147 6.45463 15.0321 6.45463C19.2286 6.45463 20 9.21803 20 12.8073V20.1421H19.9955Z" fill="#018992"/>
</svg>
