<svg width="350" height="82" viewBox="0 0 350 82" fill="none" xmlns="http://www.w3.org/2000/svg">
<g clip-path="url(#clip0_5_148)">
<path fill-rule="evenodd" clip-rule="evenodd" d="M313.692 33.1179C309.661 33.1179 306.39 36.3883 306.39 40.4195C306.39 44.4508 309.661 47.7212 313.692 47.7212C317.723 47.7212 320.994 44.4508 320.994 40.4195C320.994 36.3883 317.723 33.1179 313.692 33.1179Z" fill="#DB4313"/>
<path fill-rule="evenodd" clip-rule="evenodd" d="M306.27 54.4222V58.4668V66.5027V74.5786C306.27 78.5965 309.553 81.8803 313.571 81.8803C317.589 81.8803 320.873 78.5965 320.873 74.5786V53.5812L339.054 64.0732C342.524 66.0755 347.023 64.8742 349.025 61.4035C351.028 57.9329 349.826 53.4344 346.356 51.4321L328.188 40.9401L346.356 30.4481C349.826 28.4459 351.041 23.9474 349.025 20.4767C347.023 17.0061 342.524 15.7914 339.054 17.807L320.886 28.299V7.30168C320.886 3.28375 317.603 0 313.585 0C309.567 0 306.283 3.28375 306.283 7.30168V27.685C306.283 28.5259 306.964 29.2201 307.818 29.2201C308.032 29.2201 308.245 29.1667 308.445 29.0866C310.087 28.4192 311.809 28.0187 313.585 28.0187C315.187 28.0187 316.762 28.3124 318.257 28.8864L318.43 28.9531V28.9664C318.978 29.1934 319.525 29.447 320.032 29.754C320.553 30.0477 321.047 30.3947 321.527 30.7552H321.54L321.687 30.8753C322.929 31.8764 323.97 33.1045 324.771 34.4794C325.572 35.8677 326.106 37.3761 326.346 38.9512L326.373 39.1381V39.1514C326.453 39.7388 326.493 40.3395 326.493 40.9401C326.493 41.5408 326.453 42.1282 326.373 42.7288V42.7422L326.346 42.9291C326.106 44.5042 325.558 46.0259 324.771 47.4009C323.97 48.7891 322.929 50.0038 321.687 51.005L321.54 51.1251H321.527C321.06 51.4989 320.553 51.8326 320.032 52.1263C319.511 52.4199 318.978 52.6869 318.43 52.9138L318.257 52.9806C317.883 53.1274 317.509 53.3009 317.135 53.4344C316.028 53.8482 314.759 53.8482 313.598 53.8482C311.849 53.8482 310.101 53.5279 308.499 52.807C308.285 52.7136 308.058 52.6469 307.818 52.6469C306.977 52.6469 306.296 53.3143 306.283 54.1552L306.27 54.4222Z" fill="#018992"/>
<path fill-rule="evenodd" clip-rule="evenodd" d="M292.614 57.1186C292.174 56.9317 291.773 56.7716 291.426 56.6381C291.026 56.4912 290.652 56.3844 290.318 56.3044C289.971 56.2243 289.651 56.1709 289.33 56.1442C289.023 56.1175 288.703 56.1041 288.369 56.1041C287.462 56.1041 286.621 56.251 285.846 56.558C285.072 56.8517 284.405 57.2655 283.844 57.7994C283.284 58.32 282.843 58.9474 282.523 59.6682C282.202 60.389 282.042 61.1766 282.042 62.0309C282.042 62.8986 282.202 63.6861 282.523 64.4203C282.843 65.1545 283.297 65.7819 283.871 66.3158C284.445 66.8497 285.126 67.2636 285.9 67.5706C286.674 67.8642 287.528 68.0244 288.449 68.0244C289.104 68.0244 289.798 67.931 290.545 67.7441C291.293 67.5572 292.054 67.2636 292.841 66.8764V61.8574C292.841 61.7506 292.748 61.6571 292.641 61.6571C292.614 61.6571 292.574 61.6705 292.561 61.6705L290.812 62.4581C290.719 62.4981 290.652 62.6049 290.652 62.7117V65.6751C290.332 65.8219 290.011 65.9153 289.664 65.9821C289.317 66.0488 288.93 66.0755 288.49 66.0755C287.782 66.0755 287.168 65.9687 286.661 65.7418C286.154 65.5149 285.713 65.2212 285.379 64.8475C285.032 64.4737 284.779 64.0465 284.618 63.566C284.458 63.0854 284.378 62.5915 284.378 62.0843C284.378 61.5103 284.472 60.9764 284.672 60.4825C284.872 60.0019 285.139 59.5748 285.486 59.2277C285.833 58.8673 286.234 58.6003 286.714 58.3867C287.195 58.1865 287.702 58.0797 288.263 58.0797C288.783 58.0797 289.357 58.1598 289.958 58.3066C290.518 58.4401 291.146 58.6938 291.88 59.0675C291.88 59.0675 291.88 59.0675 291.893 59.0675C291.92 59.0809 291.947 59.0809 291.973 59.0809C292.054 59.0809 292.134 59.0275 292.16 58.9474L292.748 57.3722C292.761 57.3455 292.761 57.3322 292.761 57.3055C292.748 57.2254 292.694 57.1587 292.614 57.1186ZM241.356 62.3246C241.356 62.8986 241.249 63.4192 241.049 63.8997C240.848 64.3803 240.568 64.8074 240.208 65.1678C239.847 65.5282 239.433 65.8086 238.953 66.0088C238.472 66.209 237.952 66.3158 237.391 66.3158C236.83 66.3158 236.31 66.209 235.829 66.0088C235.349 65.8086 234.935 65.5282 234.575 65.1678C234.214 64.8074 233.934 64.3803 233.734 63.8997C233.52 63.4192 233.427 62.8852 233.427 62.3246C233.427 61.7506 233.533 61.23 233.734 60.7494C233.947 60.2689 234.228 59.8417 234.575 59.4813C234.935 59.1209 235.349 58.8406 235.829 58.6404C236.31 58.4401 236.83 58.3333 237.391 58.3333C237.952 58.3333 238.472 58.4401 238.953 58.6404C239.433 58.8406 239.847 59.1209 240.208 59.4813C240.568 59.8417 240.848 60.2689 241.049 60.7494C241.262 61.23 241.356 61.7506 241.356 62.3246ZM243.625 62.3246C243.625 61.497 243.465 60.7227 243.144 59.9886C242.824 59.2677 242.383 58.627 241.823 58.0931C241.262 57.5591 240.595 57.132 239.847 56.825C239.086 56.5179 238.272 56.3578 237.404 56.3578C236.537 56.3578 235.709 56.5179 234.962 56.825C234.201 57.132 233.547 57.5591 232.986 58.0931C232.425 58.627 231.985 59.2544 231.665 59.9886C231.344 60.7094 231.184 61.497 231.184 62.3246C231.184 63.1655 231.344 63.9398 231.665 64.6606C231.985 65.3814 232.425 66.0088 232.986 66.5561C233.547 67.09 234.201 67.5172 234.962 67.8242C235.723 68.1312 236.537 68.278 237.404 68.278C238.272 68.278 239.1 68.1312 239.847 67.8242C240.608 67.5172 241.262 67.09 241.823 66.5561C242.383 66.0221 242.824 65.3814 243.144 64.6606C243.465 63.9398 243.625 63.1655 243.625 62.3246ZM264.155 57.6259C264.155 57.5191 264.222 57.439 264.302 57.3989L266.091 56.5713C266.117 56.558 266.104 56.5446 266.184 56.5446C266.251 56.5446 266.384 56.6381 266.384 56.7449V67.0767V67.4771V67.9443C266.384 68.0511 266.291 68.1446 266.184 68.1446H264.355C264.248 68.1446 264.155 68.0511 264.155 67.9443V67.4771V67.0767V57.6259ZM278.371 68.1446C278.278 68.1446 278.184 68.1045 278.131 68.0378L271.243 60.3356V67.0767V67.5973V67.931C271.243 68.0378 271.15 68.1312 271.043 68.1312H269.214C269.107 68.1312 269.014 68.0378 269.014 67.931V67.5973V67.0767V56.7716V56.7582C269.014 56.6514 269.107 56.558 269.214 56.558H270.562C270.656 56.558 270.749 56.598 270.803 56.6648L277.624 64.3002V57.439V57.0385V56.7449C277.624 56.6381 277.717 56.5446 277.824 56.5446H279.626C279.733 56.5446 279.826 56.6381 279.826 56.7449V57.0385V57.439V67.9443C279.826 68.0511 279.733 68.1446 279.626 68.1446H278.371ZM256.974 58.1198H258.295C258.962 58.1198 259.443 58.2666 259.737 58.5603C260.03 58.8539 260.177 59.201 260.177 59.6015C260.177 59.815 260.137 60.0019 260.07 60.1888C260.004 60.3757 259.884 60.5359 259.737 60.6693C259.59 60.8028 259.376 60.9096 259.136 61.0031C258.882 61.0832 258.575 61.1232 258.215 61.1232H256.974V58.1198ZM254.945 56.558H255.118H256.773H258.415C259.123 56.558 259.737 56.6514 260.244 56.825C260.751 56.9985 261.165 57.2388 261.499 57.5458C261.832 57.8528 262.073 58.1999 262.22 58.6003C262.366 59.0008 262.446 59.4279 262.446 59.8818C262.446 60.2956 262.38 60.7094 262.246 61.1098C262.113 61.5103 261.886 61.8707 261.565 62.2044C261.245 62.5248 260.818 62.7918 260.284 62.992C259.75 63.1922 259.083 63.299 258.268 63.299H256.974V67.4371V67.8108V67.9577C256.974 68.0645 256.88 68.1579 256.773 68.1579H254.945C254.838 68.1579 254.744 68.0645 254.744 67.9577V67.8108V67.4371V57.2922V56.9985V56.7716C254.744 56.6381 254.838 56.558 254.945 56.558ZM223.869 57.9596V61.4703L227.954 56.6781C228.007 56.6114 228.087 56.5713 228.181 56.5713H230.343C230.45 56.5713 230.543 56.6915 230.543 56.7716C230.543 56.8516 230.53 56.865 230.49 56.905L225.858 62.3513L230.49 67.8108C230.517 67.8509 230.543 67.8642 230.543 67.9443C230.543 68.0244 230.45 68.1446 230.343 68.1446H228.181C228.087 68.1446 228.007 68.1045 227.954 68.0378L223.869 63.2456V66.9432V67.4371V67.931C223.869 68.0378 223.776 68.1312 223.669 68.1312H221.853C221.747 68.1312 221.653 68.0378 221.653 67.931V67.4371V67.1434V66.9565V66.6896V66.2891V57.9729V57.6526C221.653 57.5458 221.72 57.4657 221.8 57.4256L223.589 56.598C223.615 56.5847 223.642 56.5713 223.682 56.5713C223.789 56.5713 223.882 56.6648 223.882 56.7716V57.9596H223.869ZM245.56 58.4535V58.7205V62.151V62.5515V63.0187V66.1289V67.9577V67.971C245.56 68.0778 245.654 68.1713 245.761 68.1713H245.814H246.295H252.969H252.982C253.089 68.1713 253.183 68.0778 253.183 67.971C253.183 67.9443 253.183 67.9176 253.169 67.8909L252.542 66.4493C252.502 66.3558 252.408 66.2891 252.315 66.2891H247.816V63.0054V58.7071V58.4401V58.1732V56.6915C247.816 56.5847 247.723 56.4912 247.616 56.4912C247.589 56.4912 247.549 56.5046 247.523 56.5179L245.721 57.3455C245.627 57.3856 245.574 57.479 245.574 57.5725V58.1865V58.4535H245.56ZM183.85 58.4535V58.7205V62.151V62.5515V63.0187V66.1289V67.9577V67.971C183.85 68.0778 183.943 68.1713 184.05 68.1713H184.104H184.584H191.258H191.272C191.379 68.1713 191.472 68.0778 191.472 67.971C191.472 67.9443 191.472 67.9176 191.459 67.8909L190.831 66.4493C190.791 66.3558 190.698 66.2891 190.604 66.2891H186.106V63.0054V58.7071V58.4401V58.1732V56.6915C186.106 56.5847 186.012 56.4912 185.906 56.4912C185.879 56.4912 185.839 56.5046 185.812 56.5179L184.01 57.3455C183.917 57.3856 183.863 57.479 183.863 57.5725V58.1865V58.4535H183.85ZM199.441 56.4912H193.541H193.301H193.074C192.967 56.4912 192.874 56.5847 192.874 56.6915V56.905V57.2121V67.4104V67.6774V67.9443C192.874 68.0511 192.967 68.1446 193.074 68.1446H193.274H193.541H194.449H194.836H194.916C195.023 68.1446 195.116 68.0511 195.116 67.9443V67.6774V67.4104V63.0321H198.493H198.72H198.947C199.054 63.0321 199.147 62.9386 199.147 62.8318V62.685V62.2979V61.8707V61.497V61.3368C199.147 61.23 199.054 61.1365 198.947 61.1365H198.72H198.493H195.116V58.3867H198.8C198.8 58.3867 198.814 58.3867 198.827 58.3867C199.041 58.3867 199.228 58.2533 199.308 58.0664L199.775 56.9851C199.788 56.9451 199.802 56.8917 199.802 56.8383C199.802 56.6514 199.641 56.4912 199.441 56.4912ZM150.425 63.0054H147.969L149.184 60.3223L150.425 63.0054ZM149.504 56.4645C149.531 56.4512 149.557 56.4378 149.597 56.4378C149.678 56.4378 149.744 56.4779 149.784 56.558L155.03 67.7975L155.057 67.8509C155.07 67.8776 155.07 67.9043 155.07 67.931C155.07 68.0378 154.977 68.1312 154.87 68.1312H153.001C152.855 68.1312 152.734 68.0511 152.681 67.931V67.9176L152.601 67.7308L151.293 64.8608H147.128L145.807 67.7308L145.713 67.9176V67.931C145.646 68.0511 145.526 68.1312 145.393 68.1312H143.564C143.457 68.1312 143.364 68.0378 143.364 67.931C143.364 67.9043 143.377 67.8642 143.39 67.8375L143.444 67.7308L148.356 57.0652C148.396 56.9718 148.463 56.905 148.556 56.865L149.504 56.4645ZM181.661 62.3513C181.661 61.5103 181.501 60.7361 181.18 60.0019C180.86 59.2677 180.406 58.6404 179.845 58.0931C179.285 57.5591 178.617 57.132 177.856 56.8116C177.096 56.5046 176.268 56.3444 175.387 56.3444C174.506 56.3444 173.692 56.5046 172.917 56.8116C172.157 57.1186 171.489 57.5458 170.929 58.0931C170.368 58.627 169.927 59.2677 169.607 60.0019C169.287 60.7361 169.126 61.5103 169.126 62.3513C169.126 63.1922 169.287 63.9798 169.607 64.714C169.927 65.4348 170.368 66.0755 170.929 66.6228C171.489 67.1701 172.157 67.5973 172.917 67.9043C173.678 68.2113 174.506 68.3715 175.387 68.3715C176.268 68.3715 177.082 68.2247 177.856 67.9043C178.617 67.5973 179.285 67.1701 179.845 66.6228C180.406 66.0755 180.86 65.4481 181.18 64.714C181.501 63.9798 181.661 63.1922 181.661 62.3513ZM179.392 62.3513C179.392 62.9253 179.285 63.4592 179.085 63.9398C178.884 64.4337 178.604 64.8475 178.23 65.2212C177.87 65.5816 177.443 65.862 176.962 66.0755C176.482 66.2758 175.961 66.3825 175.4 66.3825C174.84 66.3825 174.319 66.2758 173.839 66.0755C173.358 65.8753 172.931 65.595 172.584 65.2212C172.223 64.8608 171.943 64.4337 171.729 63.9398C171.516 63.4459 171.422 62.9253 171.422 62.3513C171.422 61.7773 171.529 61.2433 171.729 60.7628C171.943 60.2689 172.223 59.8417 172.584 59.4813C172.944 59.1209 173.358 58.8406 173.839 58.627C174.319 58.4268 174.84 58.32 175.4 58.32C175.961 58.32 176.482 58.4268 176.962 58.627C177.443 58.8272 177.87 59.1076 178.23 59.4813C178.591 59.8417 178.871 60.2689 179.085 60.7628C179.285 61.2433 179.392 61.7773 179.392 62.3513ZM213.524 62.3246C213.524 61.4836 213.364 60.7094 213.043 59.9752C212.723 59.241 212.269 58.6137 211.708 58.0664C211.148 57.5324 210.48 57.1053 209.72 56.7849C208.959 56.4779 208.131 56.3177 207.25 56.3177C206.369 56.3177 205.555 56.4779 204.781 56.7849C204.02 57.0919 203.352 57.5191 202.792 58.0664C202.231 58.6003 201.79 59.241 201.47 59.9752C201.15 60.7094 200.99 61.4836 200.99 62.3246C200.99 63.1655 201.15 63.9531 201.47 64.6873C201.79 65.4081 202.231 66.0488 202.792 66.5961C203.352 67.1434 204.02 67.5706 204.781 67.8776C205.541 68.1846 206.369 68.3448 207.25 68.3448C208.131 68.3448 208.945 68.1846 209.72 67.8776C210.48 67.5706 211.148 67.1434 211.708 66.5961C212.269 66.0488 212.723 65.4214 213.043 64.6873C213.364 63.9531 213.524 63.1655 213.524 62.3246ZM211.255 62.3246C211.255 62.8986 211.148 63.4325 210.948 63.9131C210.747 64.407 210.467 64.8341 210.093 65.1945C209.733 65.5549 209.306 65.8353 208.825 66.0488C208.345 66.2491 207.824 66.3559 207.263 66.3559C206.703 66.3559 206.182 66.2491 205.702 66.0488C205.221 65.8486 204.794 65.5683 204.447 65.1945C204.086 64.8341 203.806 64.407 203.593 63.9131C203.379 63.4192 203.286 62.8986 203.286 62.3246C203.286 61.7506 203.392 61.2166 203.593 60.7361C203.806 60.2422 204.086 59.815 204.447 59.4546C204.807 59.0942 205.221 58.8139 205.702 58.6003C206.182 58.4001 206.703 58.2933 207.263 58.2933C207.824 58.2933 208.345 58.4001 208.825 58.6003C209.306 58.8005 209.733 59.0809 210.093 59.4546C210.454 59.815 210.734 60.2422 210.948 60.7361C211.148 61.2166 211.255 61.7506 211.255 62.3246ZM158.741 58.4001H160.944C161.544 58.4001 162.105 58.4935 162.599 58.6804C163.093 58.8673 163.533 59.1343 163.894 59.468C164.254 59.8017 164.535 60.2021 164.735 60.6827C164.935 61.1499 165.028 61.6705 165.028 62.2445C165.028 62.8986 164.922 63.4859 164.708 63.9798C164.495 64.4737 164.201 64.9009 163.84 65.2346C163.48 65.5816 163.053 65.8353 162.586 66.0088C162.105 66.1823 161.611 66.2758 161.077 66.2758H158.741V58.4001ZM156.966 68.1446H156.699C156.592 68.1446 156.499 68.0511 156.499 67.9443V67.4371V67.4104V57.2121V57.0519V56.6781C156.499 56.5713 156.592 56.4779 156.699 56.4779H156.966H157.166H160.89C162.145 56.4779 163.173 56.6514 164.001 57.0118C164.828 57.3722 165.482 57.8261 165.976 58.3867C166.47 58.9474 166.817 59.5614 167.017 60.2422C167.218 60.923 167.311 61.5771 167.311 62.2178C167.311 62.9119 167.204 63.606 166.991 64.3002C166.777 64.9943 166.43 65.635 165.95 66.1957C165.469 66.7697 164.828 67.2369 164.041 67.5839C163.253 67.9443 162.279 68.1179 161.131 68.1179H157.179H156.966V68.1446Z" fill="#018992"/>
<path fill-rule="evenodd" clip-rule="evenodd" d="M184.878 36.0679V41.6342V42.0481C184.878 42.8757 184.757 43.5831 184.531 44.1705C184.304 44.7578 184.01 45.225 183.636 45.5854C183.276 45.9458 182.849 46.2128 182.395 46.3863C181.928 46.5465 181.46 46.64 180.993 46.64C180.513 46.64 180.045 46.5599 179.605 46.3863C179.164 46.2128 178.791 45.9458 178.457 45.5854C178.123 45.225 177.87 44.7578 177.669 44.1972C177.509 43.7166 177.402 43.1693 177.389 42.542V35.04V34.5061V33.9722C177.389 33.812 177.256 33.6785 177.095 33.6785H174.773H174.759H174.733C174.639 33.6785 174.466 33.7986 174.466 33.9455V39.3516H174.479V39.712V40.4596V42.2483V42.542C174.506 43.5831 174.679 44.4908 174.986 45.2918C175.333 46.1594 175.801 46.8936 176.388 47.4676C176.975 48.0416 177.669 48.4821 178.457 48.7757C179.245 49.0694 180.085 49.2162 180.993 49.2162C181.661 49.2162 182.355 49.0961 183.049 48.8692C183.743 48.6423 184.37 48.3085 184.931 47.8814V48.6289V48.6423C184.931 48.7891 185.051 48.8959 185.185 48.8959H185.198H187.507C187.654 48.8959 187.761 48.7757 187.761 48.6423V41.6476V35.3471V35.04V33.9588V33.9321C187.761 33.8787 187.734 33.8253 187.694 33.7853C187.667 33.7452 187.627 33.7185 187.587 33.7052C187.561 33.6918 187.521 33.6785 187.494 33.6785H187.481H187.467H185.171C185.011 33.6785 184.878 33.812 184.878 33.9722V35.0534V35.0667V35.0801V36.0679ZM149.757 36.148V47.521V47.5744V48.0416V48.6423C149.757 48.7891 149.637 48.9092 149.491 48.9092H147.101C146.954 48.9092 146.834 48.7891 146.834 48.6423V48.0416V47.5744V47.521V36.148H145.806H143.016H141.722C141.575 36.148 141.455 36.0278 141.455 35.881C141.455 35.8543 141.455 35.8143 141.468 35.7876L142.055 34.1857C142.162 33.8921 142.442 33.6785 142.776 33.6785H143.003H145.793H147.809H149.01H151.026H153.815H154.656H155.11C155.257 33.6785 155.377 33.7986 155.377 33.9455C155.377 33.9722 155.377 34.0122 155.364 34.0389L154.777 35.6407C154.67 35.9344 154.389 36.1613 154.042 36.1613H153.815H151.026H149.757V36.148ZM125.196 36.0679V41.6342V42.0481C125.196 42.8757 125.076 43.5831 124.849 44.1705C124.622 44.7578 124.328 45.225 123.955 45.5854C123.594 45.9458 123.167 46.2128 122.713 46.3863C122.246 46.5465 121.779 46.64 121.312 46.64C120.831 46.64 120.364 46.5599 119.923 46.3863C119.483 46.2128 119.109 45.9458 118.775 45.5854C118.442 45.225 118.188 44.7578 117.988 44.1972C117.828 43.7166 117.721 43.1693 117.708 42.542V35.04V34.5061V33.9722C117.708 33.812 117.574 33.6785 117.414 33.6785H115.091H115.078H115.051C114.958 33.6785 114.784 33.7986 114.784 33.9455V39.3516H114.798V39.712V40.4596V42.2483V42.542C114.824 43.5831 114.998 44.4908 115.305 45.2918C115.652 46.1594 116.119 46.8936 116.706 47.4676C117.294 48.0416 117.988 48.4821 118.775 48.7757C119.563 49.0694 120.404 49.2162 121.312 49.2162C121.979 49.2162 122.673 49.0961 123.367 48.8692C124.061 48.6423 124.689 48.3085 125.249 47.8814V48.6289V48.6423C125.249 48.7891 125.37 48.8959 125.503 48.8959H125.516H127.826C127.973 48.8959 128.079 48.7757 128.079 48.6423V41.6476V35.3471V35.04V33.9588V33.9321C128.079 33.8787 128.053 33.8253 128.013 33.7853C127.986 33.7452 127.946 33.7185 127.906 33.7052C127.879 33.6918 127.839 33.6785 127.812 33.6785H127.799H127.786H125.49C125.33 33.6785 125.196 33.812 125.196 33.9722V35.0534V35.0667V35.0801V36.0679ZM104.466 40.8333L99.42 33.9855C99.2731 33.7986 99.0462 33.6651 98.7926 33.6651H97.5111C97.3643 33.6651 97.2441 33.7853 97.2441 33.9188V33.9321V47.2674V48.2418V48.6423C97.2441 48.7891 97.3643 48.9226 97.5245 48.9226H98.5256H98.886H99.8872C100.034 48.9226 100.167 48.8024 100.167 48.6423V48.2418V47.2674V39.6053H100.208L104.466 45.4786L108.724 39.6053H108.764V47.2674V48.2418V48.6423C108.764 48.7891 108.884 48.9226 109.044 48.9226H110.045H110.406H111.407C111.554 48.9226 111.687 48.8024 111.687 48.6423V48.2418V47.2674V33.9321V33.9188C111.687 33.7719 111.567 33.6651 111.42 33.6651H110.139C109.885 33.6651 109.658 33.7853 109.511 33.9855L104.466 40.8333ZM243.892 41.3005C243.892 42.0481 243.758 42.7422 243.491 43.3696C243.224 44.0103 242.851 44.5576 242.383 45.0381C241.916 45.5053 241.355 45.8791 240.728 46.1461C240.101 46.413 239.42 46.5465 238.686 46.5465C237.952 46.5465 237.271 46.413 236.643 46.1461C236.016 45.8791 235.469 45.5053 235.002 45.0381C234.534 44.5709 234.161 44.0103 233.894 43.3696C233.627 42.7288 233.48 42.0347 233.48 41.3005C233.48 40.553 233.613 39.8589 233.894 39.2315C234.161 38.5908 234.534 38.0435 235.002 37.5629C235.469 37.0957 236.016 36.722 236.643 36.455C237.271 36.188 237.952 36.0545 238.686 36.0545C239.42 36.0545 240.101 36.188 240.728 36.455C241.355 36.722 241.916 37.0957 242.383 37.5629C242.851 38.0301 243.224 38.5908 243.491 39.2315C243.758 39.8722 243.892 40.5664 243.892 41.3005ZM246.855 41.3005C246.855 40.2059 246.642 39.1915 246.214 38.2304C245.787 37.2826 245.213 36.455 244.479 35.7475C243.745 35.04 242.877 34.4928 241.876 34.0789C240.875 33.6651 239.807 33.4649 238.659 33.4649C237.511 33.4649 236.443 33.6651 235.442 34.0789C234.441 34.4928 233.587 35.04 232.852 35.7475C232.118 36.455 231.544 37.2826 231.117 38.2304C230.69 39.1781 230.476 40.2059 230.476 41.3005C230.476 42.4085 230.69 43.423 231.117 44.3707C231.544 45.3185 232.118 46.1461 232.852 46.8535C233.587 47.561 234.441 48.1217 235.442 48.5221C236.443 48.9226 237.511 49.1228 238.659 49.1228C239.807 49.1228 240.875 48.9226 241.876 48.5221C242.877 48.1217 243.745 47.561 244.479 46.8535C245.213 46.1461 245.801 45.3185 246.214 44.3707C246.642 43.4363 246.855 42.4085 246.855 41.3005ZM273.766 33.6384C273.806 33.6251 273.833 33.6117 273.886 33.6117C273.993 33.6117 274.086 33.6785 274.126 33.7586L280.974 48.4153L281.014 48.4954C281.028 48.5355 281.041 48.5622 281.041 48.6022C281.041 48.749 280.921 48.8692 280.774 48.8692H278.331C278.144 48.8692 277.984 48.7624 277.904 48.6156V48.6022L277.797 48.3619L276.089 44.6243H270.656L268.934 48.3619L268.814 48.6156V48.6289C268.733 48.7891 268.573 48.8825 268.386 48.8825H265.997C265.85 48.8825 265.73 48.7624 265.73 48.6156C265.73 48.5755 265.743 48.5355 265.757 48.4954L265.823 48.3619L272.244 34.4527C272.298 34.3326 272.391 34.2391 272.498 34.1991L273.766 33.6384ZM274.967 42.1682H271.764L273.352 38.6709L274.967 42.1682ZM172.156 33.6651H164.468H164.161H163.867C163.72 33.6651 163.6 33.7853 163.6 33.9321V34.2124V34.6129V47.9214V48.2685V48.6156C163.6 48.7624 163.72 48.8825 163.867 48.8825H164.121H164.481H165.656H166.163H166.27C166.417 48.8825 166.537 48.7624 166.537 48.6156V48.2685V47.9214V42.2082H170.955H171.262H171.569C171.716 42.2082 171.836 42.0881 171.836 41.9413V41.7544V41.2471V40.6865V40.2059V39.9924C171.836 39.8455 171.716 39.7254 171.569 39.7254H171.262H170.955H166.537V36.1346H171.355C171.369 36.1346 171.369 36.1346 171.382 36.1346C171.663 36.1346 171.903 35.9611 172.01 35.7208L172.624 34.3059C172.65 34.2525 172.664 34.1857 172.664 34.119C172.624 33.8787 172.41 33.6651 172.156 33.6651ZM203.259 48.8825C203.138 48.8825 203.018 48.8291 202.952 48.7357L193.915 38.6175V47.4809V48.1751V48.6156C193.915 48.7624 193.794 48.8825 193.648 48.8825H191.258C191.111 48.8825 190.991 48.7624 190.991 48.6156V48.1751V47.4809V33.9588V33.9455C190.991 33.7986 191.111 33.6785 191.258 33.6785H193.02C193.14 33.6785 193.261 33.7319 193.341 33.8253L202.298 43.8501V34.8398V34.3059V33.9188C202.298 33.7719 202.418 33.6518 202.564 33.6518H204.941C205.087 33.6518 205.208 33.7719 205.208 33.9188V34.3059V34.8398V48.6156C205.208 48.7624 205.087 48.8825 204.941 48.8825H203.259ZM261.952 48.8825C261.832 48.8825 261.712 48.8291 261.632 48.7357L252.595 38.6175V47.4809V48.1751V48.6156C252.595 48.7624 252.475 48.8825 252.328 48.8825H249.939C249.792 48.8825 249.672 48.7624 249.672 48.6156V48.1751V47.4809V33.9588V33.9455C249.672 33.7986 249.792 33.6785 249.939 33.6785H251.701C251.821 33.6785 251.941 33.7319 252.021 33.8253L260.978 43.8501V34.8398V34.3059V33.9188C260.978 33.7719 261.098 33.6518 261.245 33.6518H263.621C263.768 33.6518 263.888 33.7719 263.888 33.9188V34.3059V34.8398V48.6156C263.888 48.7624 263.768 48.8825 263.621 48.8825H261.952ZM157.179 35.0667C157.179 34.9333 157.259 34.8131 157.38 34.7597L159.729 33.6785C159.769 33.6651 159.756 33.6518 159.849 33.6518C159.942 33.6518 160.116 33.7719 160.116 33.9188V47.4809V48.0015V48.6022C160.116 48.749 159.996 48.8692 159.849 48.8692H157.46C157.313 48.8692 157.193 48.749 157.193 48.6022V48.0015V47.4809V35.0667H157.179ZM224.71 35.0667C224.71 34.9333 224.79 34.8131 224.91 34.7597L227.259 33.6785C227.299 33.6651 227.286 33.6518 227.38 33.6518C227.473 33.6518 227.646 33.7719 227.646 33.9188V47.4809V48.0015V48.6022C227.646 48.749 227.526 48.8692 227.38 48.8692H224.99C224.843 48.8692 224.723 48.749 224.723 48.6022V48.0015V47.4809V35.0667H224.71ZM282.896 36.2147V36.5618V41.0336V41.5542V42.1548V46.2128V48.5889V48.6022C282.896 48.749 283.016 48.8692 283.163 48.8692H283.23H283.844H292.561H292.574C292.721 48.8692 292.841 48.749 292.841 48.6022C292.841 48.5622 292.828 48.5355 292.828 48.4954L292 46.6133C291.947 46.4931 291.827 46.413 291.693 46.413H285.82V42.1548V36.5484V36.2014V35.8543V33.9188C285.82 33.7719 285.7 33.6518 285.553 33.6518C285.513 33.6518 285.473 33.6651 285.433 33.6785L283.083 34.7597C282.963 34.8131 282.883 34.9333 282.883 35.0667V35.8677V36.2147H282.896ZM131.283 36.2147V36.5618V41.0336V41.5542V42.1548V46.2128V48.5889V48.6022C131.283 48.749 131.403 48.8692 131.55 48.8692H131.617H132.231H140.947H140.961C141.108 48.8692 141.228 48.749 141.228 48.6022C141.228 48.5622 141.214 48.5355 141.214 48.4954L140.387 46.6133C140.333 46.4931 140.213 46.413 140.08 46.413H134.206V42.1548V36.5484V36.2014V35.8543V33.9188C134.206 33.7719 134.086 33.6518 133.939 33.6518C133.899 33.6518 133.859 33.6651 133.819 33.6785L131.47 34.7597C131.35 34.8131 131.27 34.9333 131.27 35.0667V35.8677V36.2147H131.283ZM221.96 34.7864C221.386 34.5328 220.865 34.3192 220.398 34.159C219.878 33.9722 219.384 33.8253 218.93 33.7319C218.476 33.6384 218.049 33.5583 217.635 33.5317C217.221 33.4916 216.807 33.4783 216.38 33.4783C215.192 33.4783 214.084 33.6785 213.07 34.0656C212.055 34.4661 211.174 35 210.44 35.6941C209.706 36.3882 209.119 37.2025 208.705 38.1503C208.304 39.0847 208.091 40.0992 208.077 41.1804V41.2471V41.2872V41.3272V41.394C208.091 42.4886 208.291 43.4897 208.705 44.4241C209.119 45.3719 209.693 46.1995 210.44 46.8802C211.174 47.5744 212.055 48.1083 213.07 48.5088C214.084 48.9092 215.192 49.0961 216.38 49.0961C216.807 49.0961 217.235 49.0828 217.635 49.0427C218.049 49.0027 218.476 48.9359 218.93 48.8425C219.384 48.7357 219.864 48.6022 220.398 48.4153C220.865 48.2551 221.373 48.0416 221.96 47.7879C222.053 47.7479 222.12 47.6545 222.12 47.5477C222.12 47.521 222.12 47.4809 222.107 47.4542L221.333 45.3852C221.293 45.2784 221.199 45.2117 221.079 45.2117C221.039 45.2117 220.999 45.225 220.972 45.2384H220.959C220.011 45.7189 219.17 46.0526 218.436 46.2262C217.635 46.413 216.901 46.5198 216.207 46.5198C215.473 46.5198 214.792 46.3863 214.178 46.1194C213.55 45.8524 213.016 45.492 212.563 45.0248C212.109 44.5576 211.762 44.0103 211.495 43.3696C211.241 42.7555 211.121 42.0881 211.108 41.3673V41.2738V41.1804C211.121 40.4596 211.241 39.7921 211.495 39.1781C211.748 38.5374 212.109 37.9901 212.563 37.5229C213.016 37.0557 213.55 36.6953 214.178 36.4283C214.805 36.1613 215.473 36.0278 216.207 36.0278C216.901 36.0278 217.635 36.1213 218.436 36.3215C219.17 36.495 220.011 36.8288 220.959 37.3093H220.972C221.012 37.3227 221.039 37.336 221.079 37.336C221.199 37.336 221.293 37.2693 221.333 37.1625L222.107 35.0934C222.12 35.0667 222.12 35.04 222.12 35C222.12 34.9333 222.053 34.8265 221.96 34.7864ZM63.0584 37.9233V38.7509V39.3383H64.4066C65.3143 39.3383 65.9818 39.1648 66.4223 38.831C66.8628 38.4973 67.0763 38.0301 67.0763 37.4161C67.0763 36.8688 66.8628 36.4283 66.4356 36.0812C66.0084 35.7342 65.3143 35.5606 64.3666 35.5606H63.0584V36.0278V36.9756V37.9233ZM63.0584 47.561V48.095C63.0584 48.2418 62.9383 48.3753 62.7914 48.3753H61.8036H61.4165H60.4287C60.2819 48.3753 60.1484 48.2551 60.1484 48.095V47.561V46.7201V38.7376V37.91V36.9756V36.0278V34.733V34.3326V33.3715C60.1484 33.2246 60.2686 33.0911 60.4287 33.0911H61.4699H61.7903H64.5935C65.5946 33.0911 66.449 33.2113 67.1431 33.4382C67.8372 33.6651 68.3978 33.9722 68.825 34.3593C69.2521 34.7464 69.5725 35.1869 69.7594 35.6941C69.9463 36.2014 70.0531 36.7086 70.0531 37.2426C70.0531 39.0313 69.2522 40.286 67.6637 41.0069L72.5226 47.9348C72.5492 47.9748 72.576 48.0282 72.576 48.095C72.576 48.2418 72.4558 48.3753 72.2956 48.3753H69.8395C69.5592 48.3753 69.3189 48.2285 69.1854 48.0149L64.9939 41.7811H63.0584V46.7201V47.561ZM25.5622 33.0911H17.4329H17.1259H16.8189C16.6721 33.0911 16.5519 33.2113 16.5519 33.3581V33.6384V34.0389V47.3474V47.6945V48.0416C16.5519 48.1884 16.6721 48.3085 16.8189 48.3085H17.0725H17.4196H18.4608H18.5943H19.1015H19.2083H25.6957C25.936 48.3085 26.1362 48.0282 26.1629 47.8547C26.1629 47.7879 26.1629 47.7079 26.1229 47.6545L25.6557 46.2662C25.5622 46.0259 25.1885 45.8524 25.0416 45.8524C24.8948 45.8524 25.0283 45.8524 25.0149 45.8524H19.4753V41.8879H24.3075H24.6145H24.9215C25.0683 41.8879 25.1885 41.7677 25.1885 41.6209V41.434V40.9401V40.3795V39.8989V39.6853C25.1885 39.5385 25.0683 39.4184 24.9215 39.4184H24.6145H24.3075H19.4753V35.5873H24.7346C24.748 35.5873 24.6145 35.5873 24.7613 35.5873C24.9081 35.5873 25.2819 35.4138 25.3887 35.1735L26.0027 33.7586C26.0294 33.7052 26.0428 33.7319 26.0428 33.5717C26.0428 33.4115 25.8292 33.1045 25.5622 33.0911ZM86.5653 40.7532C86.5653 41.5008 86.4318 42.1949 86.1648 42.8356C85.8978 43.4764 85.5241 44.0236 85.0569 44.5042C84.5897 44.9714 84.029 45.3452 83.4016 45.6121C82.7743 45.8791 82.0935 46.0126 81.3593 46.0126C80.6251 46.0126 79.9444 45.8791 79.317 45.6121C78.6896 45.3452 78.1423 44.9714 77.6751 44.5042C77.2079 44.037 76.8341 43.4764 76.5672 42.8356C76.3002 42.1949 76.1534 41.5008 76.1534 40.7532C76.1534 40.0057 76.2868 39.3116 76.5672 38.6842C76.8341 38.0435 77.2079 37.4962 77.6751 37.0156C78.1423 36.5484 78.6896 36.1747 79.317 35.9077C79.9444 35.6407 80.6251 35.5072 81.3593 35.5072C82.0935 35.5072 82.7743 35.6407 83.4016 35.9077C84.029 36.1747 84.5897 36.5484 85.0569 37.0156C85.5241 37.4828 85.8978 38.0435 86.1648 38.6842C86.4318 39.3116 86.5653 40.0057 86.5653 40.7532ZM89.5287 40.7532C89.5287 39.6587 89.3151 38.6442 88.8879 37.6831C88.4608 36.7353 87.8868 35.9077 87.1393 35.2002C86.4051 34.4928 85.5374 33.9455 84.5363 33.5317C83.5351 33.1178 82.4673 32.9176 81.3193 32.9176C80.1713 32.9176 79.1034 33.1178 78.1023 33.5317C77.1011 33.9455 76.2468 34.4928 75.5126 35.2002C74.7785 35.9077 74.2045 36.7353 73.7773 37.6831C73.3502 38.6308 73.1366 39.6587 73.1366 40.7532C73.1366 41.8612 73.3502 42.8757 73.7773 43.8234C74.2045 44.7712 74.7785 45.5988 75.5126 46.3063C76.2468 47.0137 77.1011 47.5744 78.1023 47.9748C79.1034 48.3753 80.1713 48.5755 81.3193 48.5755C82.4673 48.5755 83.5351 48.3753 84.5363 47.9748C85.5374 47.5744 86.4051 47.0137 87.1393 46.3063C87.8734 45.5988 88.4608 44.7712 88.8879 43.8234C89.3151 42.8757 89.5287 41.8612 89.5287 40.7532ZM40.793 48.3219C40.6728 48.3219 40.5527 48.2685 40.4859 48.1751L31.449 38.0568V46.9203V47.6144V48.0549C31.449 48.2018 31.3288 48.3219 31.182 48.3219H28.7926C28.6457 48.3219 28.5256 48.2018 28.5256 48.0549V47.6144V46.9203V33.3982V33.3848C28.5256 33.238 28.6457 33.1178 28.7926 33.1178H30.5546C30.6747 33.1178 30.7949 33.1712 30.875 33.2647L39.8319 43.2895V34.2792V33.7452V33.3581C39.8319 33.2113 39.952 33.0911 40.0988 33.0911H42.4749C42.6217 33.0911 42.7419 33.2113 42.7419 33.3581V33.7452V34.2792V48.0549C42.7419 48.2018 42.6217 48.3219 42.4749 48.3219H40.793ZM52.7533 35.6007V46.9737V47.0271V47.4943V48.095C52.7533 48.2418 52.6332 48.3619 52.4863 48.3619H50.0969C49.9501 48.3619 49.83 48.2418 49.83 48.095V47.4943V47.0271V46.9737V35.6007H48.8021H46.0123H44.7174C44.5706 35.6007 44.4505 35.4805 44.4505 35.3337C44.4505 35.307 44.4505 35.267 44.4638 35.2403L45.0512 33.6251C45.158 33.3314 45.4383 33.1178 45.772 33.1178H45.9989H48.7888H50.8044H52.0058H54.0214H56.8113H57.6522H58.1061C58.2529 33.1178 58.3731 33.238 58.3731 33.3848C58.3731 33.4115 58.3731 33.4516 58.3597 33.4783L57.7724 35.0801C57.6656 35.3738 57.3853 35.6007 57.0382 35.6007H56.8113H54.0214H52.7533ZM13.8689 34.1457C13.2949 33.8921 12.7743 33.6785 12.3071 33.5183C11.7865 33.3314 11.2926 33.1846 10.8387 33.0911C10.3849 32.9977 9.95772 32.9176 9.54392 32.8909C9.13011 32.8509 8.7163 32.8375 8.28915 32.8375C7.10113 32.8375 5.99319 33.0378 4.9787 33.4249C3.96421 33.8253 3.0832 34.3593 2.34903 35.0534C1.61486 35.7475 1.02752 36.5618 0.613712 37.5095C0.213254 38.4439 -0.000323286 39.4584 -0.0136719 40.5397V40.6064V40.6465V40.6865V40.7532C-0.000323286 41.8478 0.199906 42.8623 0.613712 43.7834C1.02752 44.7311 1.60151 45.5587 2.34903 46.2395C3.0832 46.9336 3.96421 47.4676 4.9787 47.868C5.99319 48.2685 7.10113 48.4554 8.28915 48.4554C8.7163 48.4554 9.14346 48.442 9.54392 48.402C9.95772 48.3619 10.3849 48.2952 10.8387 48.2018C11.2926 48.095 11.7731 47.9615 12.3071 47.7746C12.7743 47.6144 13.2815 47.4008 13.8689 47.1472C13.9623 47.1072 14.029 47.0137 14.029 46.9069C14.029 46.8802 14.029 46.8402 14.0157 46.8135L13.2415 44.7445C13.2014 44.6377 13.108 44.5709 12.9879 44.5709C12.9478 44.5709 12.9078 44.5843 12.8811 44.5976H12.8677C11.92 45.0782 11.079 45.4119 10.3448 45.5854C9.54392 45.7857 8.80974 45.8791 8.11562 45.8791C7.38145 45.8791 6.70067 45.7456 6.08663 45.4786C5.45925 45.2117 4.92531 44.8513 4.47145 44.3841C4.0176 43.9169 3.67054 43.3696 3.40357 42.7288C3.14994 42.1148 3.02981 41.4474 3.01646 40.7265V40.6331V40.5397C3.02981 39.8188 3.14994 39.1514 3.40357 38.5374C3.65719 37.8966 4.0176 37.3493 4.47145 36.8821C4.92531 36.4149 5.45925 36.0545 6.08663 35.7876C6.71402 35.5206 7.38145 35.3871 8.11562 35.3871C8.80974 35.3871 9.54392 35.4805 10.3448 35.6808C11.079 35.8543 11.9066 36.188 12.8677 36.6686H12.8811C12.9211 36.6819 12.9478 36.6953 12.9879 36.6953C13.108 36.6953 13.2014 36.6285 13.2415 36.5217L14.0157 34.4527C14.029 34.426 14.029 34.3993 14.029 34.3593C14.0424 34.2925 13.9623 34.1857 13.8689 34.1457Z" fill="#DB4313"/>
<path fill-rule="evenodd" clip-rule="evenodd" d="M260.511 14.5633C259.657 14.1895 258.882 13.9226 258.188 13.7757C257.441 13.6156 256.733 13.5355 256.066 13.5355C255.251 13.5355 254.464 13.6823 253.703 13.976C252.956 14.2696 252.288 14.6834 251.701 15.2174C251.113 15.7513 250.66 16.3921 250.299 17.1262C249.952 17.8738 249.779 18.7014 249.779 19.6091C249.779 20.4767 249.939 21.2777 250.259 21.9985C250.579 22.7327 251.02 23.3734 251.594 23.9073C252.155 24.4546 252.835 24.8684 253.61 25.1755C254.384 25.4825 255.238 25.6293 256.159 25.6293C256.827 25.6293 257.534 25.5492 258.295 25.4024C259.002 25.2555 259.777 24.9752 260.604 24.5481C260.671 24.5214 260.711 24.4546 260.711 24.3745C260.711 24.3478 260.711 24.3345 260.698 24.3078L260.124 22.746C260.097 22.6659 260.03 22.6125 259.937 22.6125C259.91 22.6125 259.883 22.6125 259.857 22.6259C259.496 22.7994 259.149 22.9462 258.842 23.0664C258.482 23.1999 258.135 23.32 257.814 23.4001C257.494 23.4802 257.2 23.5469 256.933 23.5736C256.666 23.6003 256.399 23.627 256.146 23.627C255.558 23.627 255.011 23.5336 254.531 23.3333C254.037 23.1331 253.61 22.8528 253.263 22.5057C252.902 22.1453 252.635 21.7182 252.435 21.2243C252.235 20.7304 252.141 20.1831 252.141 19.5957C252.141 19.0084 252.235 18.4611 252.435 17.9672C252.635 17.4733 252.915 17.0328 253.263 16.6724C253.61 16.312 254.023 16.0183 254.504 15.8181C254.985 15.6178 255.492 15.5111 256.052 15.5111C256.693 15.5111 257.321 15.6045 257.921 15.7914C258.468 15.9649 259.029 16.1918 259.63 16.4722C259.657 16.4855 259.683 16.4855 259.71 16.4855C259.79 16.4855 259.87 16.4321 259.897 16.3654L260.644 14.8436C260.658 14.8169 260.671 14.7769 260.671 14.7502C260.618 14.6567 260.564 14.59 260.511 14.5633ZM277.383 19.6358C277.383 20.2098 277.277 20.7437 277.076 21.2376C276.876 21.7315 276.583 22.1587 276.222 22.5324C275.862 22.8928 275.435 23.1865 274.941 23.3867C274.447 23.587 273.926 23.6938 273.366 23.6938C272.805 23.6938 272.271 23.587 271.79 23.3867C271.296 23.1865 270.883 22.8928 270.522 22.5324C270.162 22.172 269.882 21.7315 269.668 21.2376C269.454 20.7437 269.348 20.2098 269.348 19.6358C269.348 19.0618 269.454 18.5278 269.668 18.0339C269.882 17.54 270.162 17.1129 270.522 16.7391C270.883 16.3787 271.31 16.085 271.79 15.8848C272.284 15.6846 272.805 15.5778 273.366 15.5778C273.926 15.5778 274.46 15.6846 274.941 15.8848C275.435 16.085 275.862 16.3787 276.222 16.7391C276.583 17.0995 276.876 17.54 277.076 18.0339C277.277 18.5278 277.383 19.0618 277.383 19.6358ZM279.679 19.6358C279.679 18.7948 279.519 18.0072 279.185 17.2597C278.852 16.5256 278.411 15.8848 277.837 15.3375C277.263 14.7902 276.596 14.3631 275.822 14.0427C275.047 13.7223 274.22 13.5622 273.339 13.5622C272.458 13.5622 271.617 13.7223 270.856 14.0427C270.082 14.3631 269.414 14.7902 268.854 15.3375C268.293 15.8848 267.839 16.5256 267.519 17.2597C267.185 17.9939 267.025 18.7815 267.025 19.6358C267.025 20.4901 267.185 21.2777 267.519 22.0118C267.853 22.746 268.293 23.3867 268.854 23.934C269.414 24.4813 270.082 24.9085 270.856 25.2289C271.63 25.5359 272.458 25.6961 273.339 25.6961C274.22 25.6961 275.061 25.5359 275.822 25.2289C276.596 24.9218 277.263 24.4947 277.837 23.934C278.411 23.3867 278.852 22.746 279.185 22.0118C279.506 21.291 279.679 20.4901 279.679 19.6358ZM262.54 14.8036C262.54 14.6968 262.607 14.6034 262.687 14.5633L264.502 13.7223C264.529 13.709 264.515 13.6956 264.595 13.6956C264.662 13.6956 264.796 13.7891 264.796 13.8959V24.3879V24.8017V25.2689C264.796 25.3757 264.702 25.4691 264.595 25.4691H262.74C262.633 25.4691 262.54 25.3757 262.54 25.2689V24.8284V24.4146V14.8036ZM291.346 25.4958C291.253 25.4958 291.159 25.4558 291.106 25.389L284.111 17.5534V24.4146V24.9485V25.2822C284.111 25.389 284.018 25.4825 283.911 25.4825H282.055C281.949 25.4825 281.855 25.389 281.855 25.2822V24.9485V24.4146V13.9493V13.9359C281.855 13.8158 281.949 13.7357 282.055 13.7357H283.417C283.51 13.7357 283.604 13.7757 283.657 13.8425L290.599 21.598V14.63V14.2162V13.9092C290.599 13.8024 290.692 13.709 290.799 13.709H292.641C292.748 13.709 292.841 13.8024 292.841 13.9092V14.2162V14.63V25.2956C292.841 25.4157 292.748 25.4958 292.641 25.4958H291.346ZM243.491 13.709C243.518 13.6956 243.545 13.6956 243.585 13.6956C243.665 13.6956 243.732 13.749 243.772 13.8158L249.071 25.1621L249.098 25.2155C249.111 25.2422 249.111 25.2689 249.111 25.2956C249.111 25.4024 249.018 25.4958 248.911 25.4958H247.029C246.882 25.4958 246.762 25.4157 246.708 25.2956V25.2822L246.615 25.0954L245.293 22.1987H241.089L239.754 25.0954L239.66 25.2822V25.2956C239.607 25.4157 239.473 25.4958 239.34 25.4958H237.485C237.378 25.4958 237.284 25.4024 237.284 25.2956C237.284 25.2689 237.298 25.2289 237.311 25.2022L237.364 25.0954L242.33 14.3364C242.37 14.2429 242.437 14.1762 242.53 14.1361L243.491 13.709ZM244.412 20.3032H241.93L243.158 17.5934L244.412 20.3032ZM226.045 25.4958H225.778C225.671 25.4958 225.578 25.4024 225.578 25.2956V24.775V24.7617V14.4699V14.3097V13.9359C225.578 13.8291 225.671 13.7357 225.778 13.7357H226.058H226.258H230.023C231.291 13.7357 232.332 13.9092 233.16 14.2696C233.987 14.63 234.655 15.0973 235.149 15.6579C235.642 16.2185 236.003 16.8459 236.19 17.54C236.39 18.2208 236.483 18.8883 236.483 19.529C236.483 20.2231 236.377 20.9306 236.163 21.6381C235.949 22.3456 235.589 22.9863 235.108 23.5603C234.615 24.1343 233.974 24.6015 233.186 24.9619C232.385 25.3223 231.411 25.4958 230.25 25.4958H226.258H226.045ZM227.82 15.6579H230.049C230.663 15.6579 231.211 15.7513 231.718 15.9382C232.225 16.1251 232.652 16.3921 233.026 16.7258C233.386 17.0595 233.68 17.4733 233.88 17.9539C234.081 18.4344 234.174 18.955 234.174 19.529C234.174 20.1964 234.067 20.7838 233.854 21.2777C233.64 21.7849 233.346 22.2121 232.986 22.5458C232.626 22.8928 232.198 23.1465 231.718 23.3333C231.237 23.5069 230.73 23.6003 230.196 23.6003H227.833V15.6579H227.82ZM221.466 25.4958C221.373 25.4958 221.279 25.4558 221.226 25.389L214.231 17.5534V24.4146V24.9485V25.2822C214.231 25.389 214.138 25.4825 214.031 25.4825H212.176C212.069 25.4825 211.975 25.389 211.975 25.2822V24.9485V24.4146V13.9493V13.9359C211.975 13.8158 212.069 13.7357 212.176 13.7357H213.537C213.631 13.7357 213.724 13.7757 213.777 13.8425L220.719 21.598V14.63V14.2162V13.9092C220.719 13.8024 220.812 13.709 220.919 13.709H222.761C222.868 13.709 222.961 13.8024 222.961 13.9092V14.2162V14.63V25.2956C222.961 25.4157 222.868 25.4958 222.761 25.4958H221.466ZM207.25 15.5778V19.8894V20.2098C207.25 20.8505 207.157 21.3978 206.983 21.8517C206.809 22.3055 206.569 22.6659 206.289 22.9462C206.009 23.2266 205.688 23.4401 205.328 23.5603C204.967 23.6938 204.607 23.7472 204.233 23.7472C203.859 23.7472 203.499 23.6804 203.165 23.5469C202.832 23.4134 202.525 23.1999 202.271 22.9195C202.017 22.6392 201.817 22.2788 201.67 21.8517C201.537 21.4779 201.47 21.0507 201.457 20.5702V14.7635V14.3497V13.9359C201.457 13.8158 201.35 13.709 201.23 13.709H199.428H199.401C199.334 13.709 199.201 13.8024 199.201 13.9092V18.0873H199.214V18.3677V18.955V20.3433V20.5702C199.241 21.3711 199.361 22.0786 199.615 22.706C199.882 23.3867 200.242 23.9474 200.696 24.3879C201.15 24.8417 201.684 25.1755 202.298 25.4024C202.912 25.6293 203.566 25.7494 204.26 25.7494C204.78 25.7494 205.314 25.656 205.848 25.4825C206.382 25.3089 206.876 25.0553 207.303 24.7216V25.2956C207.303 25.4024 207.397 25.4958 207.504 25.4958H207.517H209.306C209.412 25.4958 209.506 25.4024 209.506 25.2956V19.8894V15.0172V14.7769V13.9359V13.9092C209.506 13.8692 209.479 13.8291 209.452 13.7891C209.426 13.7624 209.399 13.7357 209.372 13.7223C209.346 13.709 209.319 13.709 209.306 13.709H209.292H207.517C207.397 13.709 207.29 13.8158 207.29 13.9359V14.7769V14.7902V14.8036V15.5778H207.25ZM197.612 13.7223H191.659H191.419H191.192C191.085 13.7223 190.991 13.8158 190.991 13.9226V14.1361V14.4432V24.735V25.0019V25.2689C190.991 25.3757 191.085 25.4691 191.192 25.4691H191.392H191.672H192.58H192.967H193.047C193.154 25.4691 193.247 25.3757 193.247 25.2689V25.0019V24.735V20.3166H196.665H196.905H197.145C197.252 20.3166 197.345 20.2231 197.345 20.1163V19.9695V19.5824V19.1419V18.7681V18.6079C197.345 18.5011 197.252 18.4077 197.145 18.4077H196.905H196.665H193.247V15.6312H196.972C196.972 15.6312 196.985 15.6312 196.998 15.6312C197.212 15.6312 197.399 15.4977 197.479 15.3108L197.946 14.2162C197.959 14.1762 197.973 14.1228 197.973 14.0694C197.973 13.8959 197.813 13.7223 197.612 13.7223Z" fill="#018992"/>
</g>
<defs>
<clipPath id="clip0_5_148">
<rect width="350" height="81.8669" fill="white"/>
</clipPath>
</defs>
</svg>
