<svg width="18" height="21" viewBox="0 0 18 21" fill="none" xmlns="http://www.w3.org/2000/svg">
<g clip-path="url(#clip0_326_6467)">
<path d="M17.1112 8.23428C16.9472 8.24985 16.7832 8.25823 16.6192 8.25942C14.8186 8.25942 13.139 7.35196 12.1513 5.84472V14.0657C12.1513 17.4214 9.43134 20.1426 6.07446 20.1426C2.71759 20.1426 0 17.4226 0 14.0657C0 10.7088 2.71998 7.98886 6.07686 7.98886C6.20376 7.98886 6.32827 8.00083 6.45277 8.00802V11.0021C6.32827 10.9878 6.20496 10.9638 6.07686 10.9638C4.3637 10.9638 2.97618 12.3526 2.97618 14.0645C2.97618 15.7777 4.3649 17.1652 6.07686 17.1652C7.79002 17.1652 9.30324 15.816 9.30324 14.1028L9.33198 0.142578H12.1968C12.4674 2.71171 14.5385 4.71818 17.1148 4.90614V8.23428" fill="#018992"/>
</g>
<defs>
<clipPath id="clip0_326_6467">
<rect width="17.1148" height="20" fill="white" transform="translate(0 0.142578)"/>
</clipPath>
</defs>
</svg>
