<svg width="285" height="73" viewBox="0 0 285 73" fill="none" xmlns="http://www.w3.org/2000/svg">
<g clip-path="url(#clip0_326_6425)">
<path d="M284.893 72.9438H0.0529785V13.1909H69.9002V13.6983H0.533946V72.4365H284.465V13.6983H215.099V13.1909H284.893V72.9438Z" fill="#2C7A94" stroke="#2D7B94" stroke-width="0.25" stroke-miterlimit="10"/>
<path d="M89.7806 5.42602C89.7806 3.45305 89.1393 1.70555 86.8948 1.70555C83.7952 1.70555 83.7418 6.32795 83.7418 8.58278C83.6349 10.894 83.6349 16.0237 86.8948 16.0237C89.0324 16.0237 89.46 14.2199 89.6737 12.3596C89.7272 11.965 89.7272 11.5704 89.7806 11.2322H91.5442C91.4907 11.5704 91.4907 11.9087 91.4373 12.2469C91.3304 13.5998 91.277 14.6708 90.4753 15.8546C89.6203 17.0948 88.5515 17.7712 87.0017 17.7712C82.0317 17.7712 81.8713 12.7542 81.8713 8.69552C81.8713 4.86231 82.4057 0.0708008 86.9482 0.0708008C89.9944 0.0708008 91.5976 2.43837 91.4907 5.48239H89.7806V5.42602Z" fill="#2C7A94"/>
<path d="M99.2931 0C103.996 0 104.584 4.56602 104.53 8.4556C104.53 13.1344 103.942 17.7004 99.2396 17.7004C94.5368 17.7004 94.0024 13.1344 93.949 8.4556C94.0024 4.56602 94.5368 0 99.2931 0ZM99.2396 1.69112C96.5141 1.69112 95.8194 4.73513 95.8194 8.51197C95.8194 13.4162 96.3004 16.0093 99.2931 16.0093C102.232 16.0093 102.713 13.4162 102.767 8.51197C102.767 4.73513 102.072 1.69112 99.2396 1.69112Z" fill="#2C7A94"/>
<path d="M115.486 0.338379H117.249V17.306H114.363L109.874 3.72062C109.607 2.93143 109.447 2.19861 109.286 1.18394H109.233C109.233 2.0295 109.286 2.93143 109.286 3.77699V17.306H107.523V0.338379H110.409L114.951 14.2056C115.165 14.7129 115.272 15.2766 115.486 16.0658H115.539C115.539 15.4457 115.486 14.8256 115.486 14.1492V0.338379Z" fill="#2C7A94"/>
<path d="M125.96 17.306V0.338379H127.724V9.01947H127.777L133.602 0.338379H135.846L130.716 7.44109L136.007 17.306H133.816L129.487 9.13221L127.83 11.4434V17.306H125.96Z" fill="#2C7A94"/>
<path d="M142.794 0C147.497 0 148.085 4.56602 148.031 8.4556C148.031 13.1344 147.443 17.7004 142.741 17.7004C138.038 17.7004 137.503 13.1344 137.45 8.4556C137.45 4.56602 137.984 0 142.794 0ZM142.687 1.69112C139.962 1.69112 139.267 4.73513 139.267 8.51197C139.267 13.4162 139.748 16.0093 142.741 16.0093C145.68 16.0093 146.161 13.4162 146.214 8.51197C146.214 4.73513 145.52 1.69112 142.687 1.69112Z" fill="#2C7A94"/>
<path d="M151.077 17.306V0.338379H152.841V15.6148H159.414V17.306H151.077Z" fill="#2C7A94"/>
<path d="M161.819 17.306V0.338379H166.041C167.27 0.338379 168.873 0.507491 169.782 1.46579C170.744 2.42409 171.064 3.72062 171.064 5.07352C171.064 6.93375 170.53 8.79398 168.82 9.63954C167.697 10.1469 165.88 10.1469 164.651 10.1469H163.582V17.306H161.819ZM163.636 8.39939H165.346C167.804 8.39939 169.301 8.00479 169.247 5.07352C169.247 2.31135 167.591 1.97313 165.453 1.97313H163.636V8.39939Z" fill="#2C7A94"/>
<path d="M174.003 17.306V0.338379H175.767V17.306H174.003Z" fill="#2C7A94"/>
<path d="M187.524 0.338379H189.287V17.306H186.348L181.859 3.72062C181.592 2.93143 181.432 2.19861 181.271 1.18394H181.218C181.218 2.0295 181.271 2.93143 181.271 3.77699V17.306H179.508V0.338379H182.394L186.936 14.2056C187.15 14.7129 187.257 15.2766 187.47 16.0658H187.524C187.524 15.4457 187.47 14.8256 187.47 14.1492V0.338379H187.524Z" fill="#2C7A94"/>
<path d="M202.381 17.4185H200.991V14.7691H200.938C200.457 16.6857 199.014 17.7004 197.25 17.7004C192.494 17.7004 192.12 12.6834 192.12 8.68108C192.12 4.73513 192.761 0 197.411 0C200.457 0 202.22 2.08571 202.167 5.24247H200.403C200.403 3.15676 199.548 1.69112 197.517 1.69112C193.99 1.63475 193.937 5.86255 193.937 8.73745C193.937 11.3305 193.83 15.7838 196.983 15.9529C200.296 16.122 200.564 12.9089 200.564 10.2595H196.983V8.56834H202.327V17.4185H202.381Z" fill="#2C7A94"/>
<path d="M55.4716 50.3953C51.6239 50.2262 51.3567 45.0965 51.4101 42.3907C51.4636 40.6996 52.2117 35.6826 52.7996 32.0749H44.7835C44.7835 32.0749 43.2871 32.0185 43.2871 31.2293C43.3406 30.1019 44.8369 30.4965 45.1575 30.4965L53.0668 30.4401C53.2805 29.1436 53.4943 28.2417 53.4943 28.1853C53.7081 27.2834 53.8149 26.776 54.6166 27.0579C55.0975 27.227 55.4182 28.3544 55.3647 28.8618C55.3647 28.8618 55.3113 29.4255 55.2044 30.4965L63.3809 30.4401C63.3809 30.4401 64.61 30.2146 64.61 31.1166C64.5566 32.0185 62.8999 32.0185 62.8999 32.0185H54.9372C54.8303 32.9204 54.67 34.0478 54.5097 35.288C54.3494 36.3027 53.3874 41.2069 53.2805 42.7289C53.1737 44.2509 53.4943 48.5351 55.6319 48.7042C58.8384 48.9861 60.8157 44.6455 61.9914 42.3907C62.4724 41.5451 63.1671 42.7289 62.1517 44.9274C61.7776 45.6602 59.5866 50.6208 55.4716 50.3953Z" fill="#2C7A94"/>
<path d="M71.5038 50.3954C68.0836 50.4518 67.4957 46.2804 67.4957 46.2804C67.4957 46.2804 66.2131 50.5082 63.5945 50.2827C61.4569 50.0572 60.6019 46.9568 60.9225 44.702C61.2431 42.4472 61.8844 40.4178 62.0448 39.8541C62.0982 39.5159 62.312 38.6703 63.4342 39.0085C64.3427 39.2904 63.8617 40.136 63.5411 41.2634C63.0067 43.1236 61.9913 48.1406 63.9686 48.4225C65.3046 48.5916 66.801 44.8147 67.1216 43.5182C67.3354 42.6726 67.4957 41.8271 67.7095 40.9251C67.9232 40.0232 68.4042 39.685 68.9921 39.8541C70.1143 40.1923 69.6333 40.6997 69.4196 41.6016C69.3127 42.2217 69.3127 43.4618 69.2058 45.4348C69.2058 47.0696 69.6333 48.6479 70.9694 48.8171C74.3896 49.2117 76.26 44.6456 77.4357 42.3908C77.9166 41.5452 78.7183 42.7854 77.596 44.9275C76.5806 46.7877 74.1758 50.3391 71.5038 50.3954Z" fill="#2C7A94"/>
<path d="M91.1166 45.2656C93.5749 46.3366 95.5522 45.1528 96.7279 43.1799L97.2089 42.3343C97.5829 41.6015 98.3311 42.3343 98.0105 43.6872C96.9417 46.6185 92.9336 48.8169 90.6891 46.7876C90.3684 47.5768 90.0478 48.2532 89.6737 48.9297C88.8721 50.2262 88.1773 51.6355 86.8413 51.6355C83.2073 51.6355 83.528 42.5598 83.6883 41.2633C83.6883 40.0795 85.9863 39.854 85.6656 41.4324C85.5053 42.3343 85.2915 49.3806 87.0016 49.6625C87.8567 49.8316 88.8721 47.5768 89.5134 45.3219C89.0324 44.1382 89.0858 42.7289 89.353 41.0378C89.6202 39.403 90.3684 37.7683 90.8494 37.8247C91.9182 37.881 91.9716 39.4594 91.9182 41.2633C91.7579 42.2216 91.5976 43.6872 91.1166 45.2656Z" fill="#2C7A94"/>
<path d="M100.415 51.2973C96.3538 51.3537 95.9798 46.2803 96.0866 45.2657C96.1935 44.0819 96.6211 41.6016 96.6211 41.6016C96.9951 40.6433 98.5984 40.756 98.5984 41.7143C98.5984 41.9962 96.621 49.6626 100.683 49.4371C103.408 49.3244 106.027 44.4201 107.202 42.1089C107.683 41.207 108.378 42.4471 107.363 44.6456C106.935 45.4911 104.103 51.2973 100.415 51.2973ZM98.8656 37.5993C98.7587 38.3885 98.064 38.8958 97.3158 38.783C96.3538 38.6139 96.1401 37.7684 96.1935 37.2047C96.1935 36.6973 96.7279 35.3444 97.7968 35.5136C98.919 35.739 98.9725 36.8664 98.8656 37.5993Z" fill="#2C7A94"/>
<path d="M123.769 42.3906C124.25 41.5451 124.998 42.5598 123.983 44.7582C123.609 45.5474 120.83 51.4663 117.036 51.2408C115.112 51.1281 113.883 49.8316 113.081 47.9713C111.691 50.0007 110.088 51.4099 108.485 51.2972C107.416 51.2408 105.172 50.6771 105.439 46.9003C105.813 40.8686 110.195 38.332 111.691 38.5011C111.959 38.5011 112.172 38.5574 112.333 38.6702C113.134 30.3837 115.753 22.0409 118.639 22.3791C122.166 22.8864 119.387 33.0331 116.394 41.2632C115.806 42.8416 115.112 44.5327 114.257 45.9984C114.844 47.915 115.753 49.1551 117.089 49.3242C120.135 49.5497 122.593 44.6455 123.769 42.3906ZM107.363 46.6184C107.256 48.3096 107.47 49.4933 108.645 49.5497C109.874 49.6061 111.211 47.9713 112.493 45.6601C112.172 44.0818 112.066 42.3343 112.119 40.6995C111.905 40.4741 111.585 40.3049 111.264 40.2486C109.714 40.1358 107.577 43.9127 107.363 46.6184ZM118.265 24.7467C117.837 24.6339 116.287 26.0432 114.631 33.4841C113.883 36.81 113.562 40.3613 113.776 43.2362C115.432 39.5158 116.768 35.2316 117.142 33.766C117.891 31.0038 118.692 24.8594 118.265 24.7467Z" fill="#2C7A94"/>
<path d="M132.854 51.128C129.754 51.1844 129.273 47.8585 129.273 47.8585C129.273 47.8585 127.403 51.4662 125.586 51.4099C124.624 51.4099 122.112 50.5079 122.754 45.3782C123.395 40.2485 126.655 37.9373 128.311 37.9937C131.304 38.1064 131.037 40.8122 130.983 41.0941C130.556 42.5033 130.075 42.1087 129.701 41.9396C129.701 41.9396 130.022 39.6284 128.258 39.5721C126.762 39.5157 125.265 41.9396 124.731 44.3636C124.143 46.9002 124.517 49.4369 125.746 49.4369C127.67 49.4369 129.273 43.969 129.487 42.6161C129.594 42.0524 131.518 42.5033 131.411 43.4053C131.358 43.4053 129.487 49.2678 132.961 49.2678C134.511 49.2678 136.541 47.5767 139.267 42.2778C139.748 41.4323 140.442 42.6724 139.374 44.8145C138.465 46.5056 135.9 51.0717 132.854 51.128Z" fill="#2C7A94"/>
<path d="M156.902 42.2214C157.383 41.3758 158.025 42.616 156.956 44.8145C156.582 45.5473 153.91 51.2971 149.955 51.2407C145.252 51.128 144.664 47.182 144.771 44.3071C144.878 41.4322 147.337 35.5696 150.222 37.4299C152.36 38.8955 151.131 41.5449 150.436 43.4616C149.634 45.7164 148.138 47.5766 147.443 48.4786C147.924 48.9295 148.726 49.2677 149.634 49.2677C153.322 49.3241 155.62 44.4762 156.902 42.2214ZM149.207 39.0083C148.192 38.8391 146.054 44.0816 146.749 47.182C148.459 45.1527 148.619 44.1944 149.1 42.8978C149.634 41.1503 150.115 39.1774 149.207 39.0083Z" fill="#2C7A94"/>
<path d="M156.956 45.3786C157.17 46.2241 157.544 46.9006 157.864 47.5207C157.971 47.4643 158.078 47.4643 158.185 47.4643C160.055 47.2952 160.59 45.9986 160.59 44.3075C160.59 41.2071 159.574 40.3616 158.986 39.2905C158.88 41.038 157.971 43.0674 157.223 44.3075C157.009 44.7021 155.94 44.1384 156.314 43.4056C156.635 42.6728 157.65 41.0944 158.185 37.7121C158.345 36.5283 158.612 35.5137 159.574 35.5137C161.338 35.57 161.071 37.7121 161.124 38.5577C161.178 39.7415 162.62 43.4056 162.567 44.5894C162.3 47.2952 160.323 48.8736 158.88 48.6481C159.681 49.4373 160.643 49.7755 161.712 49.7755C165.56 49.7755 167.965 44.6457 169.194 42.3345C169.675 41.489 170.369 42.7291 169.354 44.9276C168.926 45.7168 166.148 51.6921 161.071 51.3539C157.544 51.1284 155.994 48.7608 155.299 45.5477C155.299 45.5477 155.299 44.7585 156.047 44.5894C156.689 44.3639 156.849 45.0403 156.956 45.3786Z" fill="#2C7A94"/>
<path d="M194.044 51.4101C188.486 51.2409 191.051 41.9398 190.624 41.9398C190.196 41.8834 188.539 50.9027 185.974 50.8463C183.249 50.7336 185.547 43.349 184.211 43.2927C183.516 43.2363 181.592 51.6919 179.187 51.4664C176.408 51.1846 178.92 43.0672 177.744 43.0672C177.584 43.0672 177.37 43.4618 176.729 44.7583C176.355 45.2093 175.553 44.3073 175.981 43.349C176.301 42.729 176.622 42.2216 177.103 41.3197C177.744 40.305 178.813 40.305 179.454 42.1653C180.042 43.9127 179.027 48.5351 179.561 48.7606C180.363 49.1552 182.981 41.8834 183.356 41.0942C184.157 39.6286 186.295 39.9104 186.348 42.3344C186.348 43.1799 185.867 48.366 186.402 48.4788C186.883 48.5915 189.127 41.6579 189.608 40.4741C190.089 39.234 191.479 39.4595 192.334 40.4741C193.028 41.2633 190.249 49.2116 194.364 49.4934C197.357 49.7189 199.922 44.5892 201.098 42.278C201.579 41.4324 202.22 42.6162 201.205 44.871C200.777 45.6602 198.105 51.5228 194.044 51.4101Z" fill="#2C7A94"/>
<path d="M208.312 42.2216C208.793 41.3761 209.435 42.6162 208.366 44.8147C207.992 45.6039 205.32 51.3536 201.365 51.2973C196.662 51.1845 196.074 47.2386 196.181 44.3637C196.288 41.4888 198.746 35.6263 201.632 37.4865C203.77 38.9521 202.541 41.6016 201.846 43.5182C201.044 45.773 199.548 47.6332 198.853 48.5351C199.334 48.9861 200.136 49.3243 201.044 49.3243C204.732 49.3243 207.03 44.4765 208.312 42.2216ZM200.617 39.0085C199.601 38.8394 197.464 44.0819 198.159 47.1822C199.869 45.1529 200.029 44.1946 200.51 42.8981C201.098 41.1506 201.525 39.1776 200.617 39.0085Z" fill="#2C7A94"/>
<path d="M208.9 47.8589C208.9 47.8589 208.954 50.5647 208.954 53.7778C209.702 53.6087 210.29 53.5523 210.824 53.6087C210.824 53.6087 212.267 54.5106 211.626 55.018C210.878 54.8488 209.969 54.9616 208.954 55.2434C208.9 58.0056 208.793 60.8241 208.526 62.2334C207.03 69.7307 202.701 70.6326 200.724 70.6326C197.678 70.5763 195.487 68.4342 195.647 65.4465C195.968 60.655 202.434 56.0326 207.083 54.2851C207.083 49.55 206.87 44.533 208.206 40.8689C208.366 40.3616 210.397 40.8125 210.023 41.7145C208.954 44.3639 208.9 47.8589 208.9 47.8589ZM197.304 65.5593C197.25 66.4048 197.09 68.9415 200.724 69.3925C204.358 69.7871 206.442 63.9245 206.816 60.7678C207.03 59.2458 207.083 57.611 207.083 55.9199C202.701 57.7801 197.41 62.0079 197.304 65.5593ZM211.038 37.0357C210.985 38.2759 209.809 38.8396 209.221 38.7268C208.259 38.5577 208.045 37.7685 208.099 37.2048C208.099 36.6975 208.74 35.0627 209.809 35.1755C210.878 35.2882 211.038 36.3029 211.038 37.0357Z" fill="#2C7A94"/>
<path d="M226.803 42.3346C227.177 41.6017 227.765 42.3346 227.444 43.6875C226.856 45.4913 224.772 47.9716 220.871 47.0133C220.123 49.4936 218.573 51.6921 216.008 51.523C213.55 51.3538 212.855 48.3098 213.015 46.3369C213.176 44.3639 214.191 40.1925 215.901 39.9106C216.115 38.8396 216.81 37.9377 218.252 37.8249C219.588 37.7122 221.779 39.4597 221.405 44.1948C221.405 44.533 221.352 44.8712 221.299 45.1531C223.009 45.8859 225.146 45.6604 226.322 43.1801L226.803 42.3346ZM216.435 49.9446C217.718 50.0573 218.894 48.1407 219.321 46.4496C217.878 45.6041 216.81 44.1948 216.222 42.56C215.634 43.011 214.779 45.3786 214.725 46.506C214.672 47.7461 214.725 49.8318 216.435 49.9446ZM218.359 39.6851C217.504 39.7415 217.397 41.038 217.665 41.9963C217.932 42.8983 218.627 43.8002 219.642 44.4766C219.695 42.5037 219.588 39.5724 218.359 39.6851Z" fill="#2C7A94"/>
<path d="M228.353 42.2215C228.086 42.8416 227.605 43.5744 226.91 44.8709C226.589 45.3783 225.841 44.3072 226.269 43.3489C226.589 42.7288 226.75 42.3342 227.231 41.4323C227.444 41.0941 227.337 41.2068 227.337 40.1358C227.337 38.3883 227.872 36.4153 228.78 36.5281C229.582 36.5844 229.956 37.881 229.903 38.2755C229.903 38.7829 229.368 39.2902 229.635 39.5721C229.849 39.8539 230.223 39.6848 230.384 39.6284C230.704 39.4593 231.773 38.6138 232.949 39.2902C233.697 39.7412 233.43 41.0941 233.43 41.2632C233.323 42.5033 232.628 42.447 232.628 44.8145C232.575 47.1821 232.842 49.0987 234.926 49.0987C237.384 49.0987 239.736 44.7018 240.965 42.3906C241.392 41.545 242.141 42.7288 241.125 44.9273C240.698 45.7165 238.186 51.1281 234.605 50.959C230.704 50.7335 230.544 46.562 230.544 45.491C230.384 42.9543 231.292 42.0524 230.971 41.7142C230.384 41.2068 230.384 42.1088 229.742 42.1088C229.101 42.1088 228.567 41.7142 228.353 42.2215Z" fill="#2C7A94"/>
</g>
<defs>
<clipPath id="clip0_326_6425">
<rect width="285" height="73" fill="white"/>
</clipPath>
</defs>
</svg>
