<svg width="20" height="15" viewBox="0 0 20 15" fill="none" xmlns="http://www.w3.org/2000/svg">
<path d="M19.5821 2.34288C19.3521 1.47679 18.6744 0.794689 17.8139 0.563207C16.2542 0.142578 10 0.142578 10 0.142578C10 0.142578 3.74586 0.142578 2.18613 0.563207C1.32565 0.794726 0.647936 1.47679 0.417919 2.34288C0 3.91271 0 7.18803 0 7.18803C0 7.18803 0 10.4633 0.417919 12.0332C0.647936 12.8993 1.32565 13.5529 2.18613 13.7844C3.74586 14.2051 10 14.2051 10 14.2051C10 14.2051 16.2541 14.2051 17.8139 13.7844C18.6744 13.5529 19.3521 12.8993 19.5821 12.0332C20 10.4633 20 7.18803 20 7.18803C20 7.18803 20 3.91271 19.5821 2.34288ZM7.95453 10.1618V4.21429L13.1818 7.1881L7.95453 10.1618Z" stroke-width="2" stroke="#018992"/>
</svg>